<svg xmlns="http://www.w3.org/2000/svg" version="1.1" xmlns:xlink="http://www.w3.org/1999/xlink" xmlns:svgjs="http://svgjs.dev/svgjs" width="1440" height="560" preserveAspectRatio="none" viewBox="0 0 1440 560"><g mask="url(&quot;#SvgjsMask1880&quot;)" fill="none"><rect width="1440" height="560" x="0" y="0" fill="url(&quot;#SvgjsLinearGradient1881&quot;)"></rect><use xlink:href="#SvgjsG1899" transform="translate(0, 0)" fill="rgba(0, 217, 255, 0.29)"></use><use xlink:href="#SvgjsG1899" transform="translate(600, 0)" fill="rgba(0, 217, 255, 0.29)"></use><use xlink:href="#SvgjsG1899" transform="translate(1200, 0)" fill="rgba(0, 217, 255, 0.29)"></use></g><defs><mask id="SvgjsMask1880"><rect width="1440" height="560" fill="#ffffff"></rect></mask><linearGradient x1="15.28%" y1="-39.29%" x2="84.72%" y2="139.29%" gradientUnits="userSpaceOnUse" id="SvgjsLinearGradient1881"><stop stop-color="rgba(20, 20, 20, 1)" offset="0"></stop><stop stop-color="rgba(4, 4, 4, 1)" offset="0.03"></stop></linearGradient><g id="SvgjsG1896"><path d="M2.51 8.45L0 8.36 0.04 7.03l2.51 0.09-0.04 1.33zM3.78 4.43L2.07 2.59l0.97-0.9 1.71 1.83-0.97 0.91z m-0.24 6.81l0.9 0.97-1.83 1.71-0.9-0.97 1.83-1.71z m5.3-8.7l-1.32-0.05L7.6-0.02l1.33 0.05-0.09 2.51z m-1.71 10.89l1.33 0.05-0.09 2.51-1.32-0.05 0.08-2.5zM12.46 4.73l-0.93-0.97 1.86-1.71 0.9 0.97-1.83 1.71z m-0.24 6.79l1.71 1.86-0.97 0.9-1.7-1.84 0.96-0.92z m3.79-3.93l-0.05 1.33-2.51-0.09L13.5 7.5l2.51 0.09z"></path><path d="M3.71 7.83a4.18 4.18 0 1 0 8.36 0.3 4.18 4.18 0 1 0-8.36-0.3"></path></g><g id="SvgjsG1897"><path d="M7.09 0.85c0.04-1.18 1.82-1.12 1.78 0.09l-0.18 4.95L15.48 10.31l-0.06 1.82L8.6 9.63 8.47 13.33l1.55 1.3L9.97 16.07 7.53 15.23 5.04 15.9l0.05-1.44 1.63-1.19L6.85 9.57-0.13 11.59-0.07 9.77l6.98-3.94L7.09 0.85z"></path></g><g id="SvgjsG1895"><path d="M6.05 4.99s0.25-0.36-0.03-0.51L3.97 4.4s-0.34 0.16-0.01 0.73l2.09-0.14zM10.36 6.12s0.1 0.14-0.02 0.22l-2.67 1.93 0.3 0.45L10.62 6.83s0.04-0.08 0.17 0.09l0.03-0.27-0.46-0.53z"></path><path d="M7.93 4.5s-0.11 0.01-0.09-0.09L7.85 4.07s0.05-0.09 0.11-0.07l2.42 0.08s0.57 0.03 0.2 0.51c0 0-0.3 0.22-0.17 0.58L12.56 9.33l-0.4 0.21-1.83-3.39s0.04-0.05-0.26-0.06l-4.22-0.15 1.09 2.15-0.48 0.27L5.19 6s-0.05-0.05-0.09 0.01l-1.23 2.49s-0.03 0.07 0.09 0.08l2.29 0.09 0.04 0.48L3.41 9.05s-0.34-0.01-0.2-0.35l1.61-3.36s0.02 0-0.01-0.05l-0.14-0.26 0.64-0.06 0.09 0.2s0.02 0.09 0.13 0.08l4.21 0.15s0.16 0.04 0.17-0.16c0.01-0.19-0.12-0.24 0.04-0.55 0 0 0.06-0.11-0.06-0.12L7.93 4.5"></path><path d="M3.48 6.8a2.06 2.06 0 0 0-0.15 4.13 2.06 2.06 0 0 0 0.15-4.13zM12.32 7.11a2.06 2.06 0 1 0 1.99 2.14 2.06 2.06 0 0 0-1.99-2.14z"></path><path d="M7.12 8.31a0.69 0.69 0 1 0-0.05 1.38 0.69 0.69 0 0 0 0.05-1.38z"></path></g><g id="SvgjsG1886"><path d="M7.84 5.26c-0.02 0.52-0.52 1.07-1.14 1.05l-0.31 8.85c-0.04 1.26-1.76 1.2-1.72-0.06L4.98 6.25c-0.6-0.02-1.11-0.5-1.08-1.2L4.07 0.17c0.01-0.42 0.63-0.42 0.61 0.04l-0.12 3.61 0.51 0.01L5.19 0.2c0.01-0.39 0.6-0.39 0.59 0.03l-0.12 3.62 0.52 0.02L6.31 0.24C6.33-0.17 6.9-0.16 6.88 0.28l-0.12 3.61 0.52 0.02L7.41 0.28c0.01-0.41 0.61-0.4 0.6 0.04l-0.17 4.94zM12.54 1.6l-0.49 13.75c-0.04 1.23-1.76 1.15-1.71-0.05L10.53 9.84l-0.91-0.04L9.91 1.51c0.07-1.93 2.7-1.84 2.63 0.09z"></path></g><g id="SvgjsG1889"><path d="M1.1 8.6c1.04-1.14 2.9-1.91 4.44-1.59 0.25-2.14 0.07-4.16 1.21-6.1C3.43 1.01 1.71 6.03 1.1 8.6M12.99 5.24c0.73-0.81 2.39-1.17 3.23-0.36C14.07 1.65 11.36-0.47 7.34 0.74c3.07 1.05 5.14 4.02 5.65 4.5"></path><path d="M12.36 5.35C11.33 3.8 8 1.26 7.25 1.39c-0.81 0.13-1.19 4.66-1.15 5.64 0.51-0.87 1.26-1.52 2.11-1.92l3.13 9.54 0.48-0.1-3.16-9.61c1.17-0.39 2.5-0.3 3.7 0.41"></path></g><g id="SvgjsG1888"><path d="M12.66 14.22L8.81 14.09l0.19-5.48L16.24 0.28 0.28-0.27l6.77 8.77-0.19 5.52-3.77-0.13c-1.3-0.04-1.37 1.9-0.07 1.94L12.59 16.17c1.3 0.05 1.35-1.9 0.07-1.95zM8.13 4.81c0.02-0.68 0.6-1.22 1.28-1.19 0.68 0.02 1.22 0.6 1.19 1.28-0.02 0.69-0.59 1.22-1.27 1.19-0.68-0.02-1.22-0.59-1.2-1.28z"></path></g><g id="SvgjsG1894"><path d="M7.78 3.53A1.06 1.06 0 1 0 7.85 1.41a1.06 1.06 0 0 0-0.07 2.12m-1.79 0.11a0.3 0.3 0 0 0-0.21-0.37l-0.87-0.24a0.3 0.3 0 0 0-0.38 0.2L3.69 6.27a0.3 0.3 0 0 0 0.21 0.38l0.88 0.24c0.16 0.05 0.33-0.05 0.37-0.21L5.99 3.64z m3.68 11.04l0 0.02a0.24 0.24 0 0 0 0.48 0.05l2.11-9.56 0-0.03a0.24 0.24 0 0 0-0.23-0.25c-0.12 0-0.22 0.09-0.25 0.21L9.67 14.68zM3.79 13.84a0.74 0.74 0 0 0 1.43 0.42l1.47-5.25 1.03 5.3a0.74 0.74 0 0 0 1.46-0.29L7.75 6.98l0.17-0.61 0.09 0.49c0.09 0.32 0.37 0.36 0.37 0.36l1.71 0.49a0.51 0.51 0 0 0 0.26-0.98l-1.48-0.43-0.35-1.67c-0.16-0.93-1.05-0.94-1.06-0.95-0.86-0.05-1.11 0.85-1.1 0.85L3.79 13.84z" fill-rule="evenodd"></path></g><g id="SvgjsG1885"><path d="M13.67 12.26c0.61-0.18 0.96-0.82 0.78-1.44l-0.44 0.13c0.11 0.37-0.11 0.75-0.47 0.86L1.96 15.36l0.13 0.44 11.58-3.54zM3.37 5.07c0.64-0.16 1.02-0.82 0.85-1.46-0.16-0.64-0.81-1.03-1.44-0.87-0.64 0.16-1.02 0.82-0.86 1.47 0.16 0.64 0.81 1.03 1.45 0.86"></path><path d="M2.82 6.72c-0.58-1.23 1.25-2.15 1.87-0.95l1.21 2.53 2.48-0.62c0.41-0.1 0.96 0.36 0.94 0.89l-0.11 3.54c-0.03 0.88-1.32 0.84-1.29-0.06 0.03-0.82 0.07-2.58 0.07-2.57L5.4 10.17c-0.57 0.14-1.02-0.15-1.23-0.58l-1.35-2.87z"></path><path d="M6.78 7.42L7.04-0.04 6.52-0.06l-0.26 7.61 0.52-0.13zM1.59 8.29c-0.33-0.71 0.6-1.15 0.92-0.43l1.04 2.24c0.23 0.46 0.69 0.79 1.23 0.8 0.17 0.01 0.33-0.03 0.48-0.06l1.41-0.36c0.75-0.2 1 0.8 0.25 0.99l-1.49 0.38c-0.22 0.06-0.46 0.09-0.7 0.08-0.95-0.03-1.75-0.6-2.12-1.4L1.59 8.29z"></path></g><g id="SvgjsG1884"><path d="M2.5 6.71a1.47 1.47 0 0 0-0.17 0.65l-0.07 3.5L0.96 13.42a0.79 0.79 0 0 0 0.53 1.17 0.78 0.78 0 0 0 0.82-0.36l1.43-2.8a0.81 0.81 0 0 0 0.08-0.32l0.07-2.16 2.01 0.96 0.25 2.12a0.79 0.79 0 0 0 1.56-0.21L7.4 9.26a0.8 0.8 0 0 0-0.42-0.58L5.18 7.8l1.23-1.98 0.55 0.75a0.6 0.6 0 0 0 0.22 0.17l2.17 0.71a0.62 0.62 0 0 0 0.72-0.34 0.62 0.62 0 0 0-0.31-0.82l-0.03-0.01-1.89-0.63-1.38-1.78a1.43 1.43 0 0 0-2.27 0.14l-1.69 2.71z"></path><path d="M8.63 11.95l-0.18 1.04-3.81 0.79 0.01 0.65 9.22 0.32c0.32 0.01 0.6-0.25 0.61-0.57L14.9 1.76 13.65 1.42l-0.84 3.24-1.23 0.47L10.4 8.1l0.94 2.34-0.32 0.88-2.39 0.63zM6.36 3.27A1.18 1.18 0 1 0 6.44 0.92a1.18 1.18 0 0 0-0.08 2.35M4.01 3.37a0.34 0.34 0 0 0-0.11-0.46l-0.55-0.35a0.34 0.34 0 0 0-0.47 0.1L1.02 5.63a0.34 0.34 0 0 0 0.11 0.47l0.56 0.35c0.16 0.1 0.36 0.05 0.46-0.11l1.86-2.97z"></path></g><g id="SvgjsG1898"><path d="M14.5 13.84c-0.01 0.35-0.32 0.63-0.66 0.61L3.3 14.08l-0.01 0.44 10.53 0.36a1.07 1.07 0 0 0 1.12-1.03l-0.43-0.01z m-2.8-9.92A1.06 1.06 0 1 0 11.77 1.81a1.06 1.06 0 0 0-0.07 2.11M4.68 12.8L1.28 9.14l-0.02 0.62 3.16 3.4c0.36 0.42 1.02-0.03 1.02-0.03l-0.29-0.34s-0.31 0.19-0.47 0.02l0-0.01z m0.34-6.66L1.42 6.02l-0.01 0.43L5.01 6.57l0.01-0.43z m9.78-0.69l0.4 0.19L10.83 13.73l-0.46-0.01L14.8 5.45z"></path><path d="M8.03 4.58l-1.71 1.85a0.53 0.53 0 1 1-0.74-0.77l1.85-1.98a0.53 0.53 0 0 1 0.41-0.18L10.41 3.59a0.69 0.69 0 0 1 0.48 0.22L12.47 5.5l1.41-1.31a0.55 0.55 0 0 1 0.75 0.8L12.93 6.58c-0.51 0.48-0.9 0.04-0.9 0.04l-0.97-1.04-1.63 1.76 1.39 1.49s0.29 0.29 0.1 0.85L9.99 13.24a0.69 0.69 0 1 1-1.32-0.36l0.76-2.92-1.57-1.65-1.47 1.52s-0.24 0.27-0.84 0.23l-2.85-0.09a0.69 0.69 0 0 1-0.66-0.56 0.67 0.67 0 0 1 0.72-0.81l2.45 0.1 3.77-4.08-0.94-0.04z"></path></g><g id="SvgjsG1892"><path d="M14.75 5.63A1.33 1.33 0 0 0 16.13 4.34c0.03-0.73-0.55-1.35-1.28-1.37-0.73-0.03-1.35 0.55-1.38 1.28s0.55 1.35 1.28 1.38zM13.76 15.19a1.35 1.35 0 0 0 1.87-0.41l-0.45-0.29c-0.24 0.38-0.74 0.48-1.12 0.24L0.34 6.01 0.05 6.47 13.76 15.19z"></path><path d="M9.21 0.34c-0.79-0.57-1.89-0.4-2.47 0.4-0.32 0.43-0.42 0.99-0.29 1.45l0.83 3.08-2.84 0.8a1.08 1.08 0 0 0-0.7 0.85c-0.09 0.59 0.34 1 0.92 1.09 0.13 0.02 0.23-0.02 0.36-0.04l3.88-1.14c0.28-0.09 0.6-0.36 0.64-0.6 0.03-0.18 0.09-0.32 0.05-0.43l-0.51-2.11 2.26 1.45 0.21 2.01c0.01 0.35 0.16 0.61 0.42 0.77L14.93 9.78a0.68 0.68 0 0 0 0.93-0.24c0.19-0.32 0.09-0.75-0.24-0.94l-2.33-1.47-0.15-3.58a1.45 1.45 0 0 0-0.57-1.06L9.21 0.34z"></path></g><g id="SvgjsG1887"><path d="M14.8 16.24c-0.33-0.01-0.64-0.1-0.91-0.23a2.26 2.26 0 0 0-0.95-0.25c-0.34-0.01-0.67 0.06-0.97 0.18A2.25 2.25 0 0 1 11.03 16.11c-0.33-0.01-0.64-0.1-0.91-0.24-0.29-0.15-0.61-0.24-0.95-0.24-0.34-0.01-0.67 0.06-0.97 0.18A2.25 2.25 0 0 1 7.27 15.98c-0.33-0.01-0.64-0.1-0.93-0.24a2.24 2.24 0 0 0-0.94-0.25c-0.34-0.01-0.67 0.06-0.97 0.19A2.25 2.25 0 0 1 3.5 15.85c-0.33-0.01-0.64-0.1-0.92-0.24a2.24 2.24 0 0 0-0.95-0.25c-0.34-0.01-0.67 0.06-0.96 0.18A2.27 2.27 0 0 1-0.27 15.72l0.04-1.41c0.33 0.01 0.65-0.05 0.94-0.17a2.3 2.3 0 0 1 0.97-0.18c0.34 0.01 0.66 0.1 0.94 0.24a2.24 2.24 0 0 0 0.93 0.24 2.22 2.22 0 0 0 0.93-0.17 2.31 2.31 0 0 1 0.97-0.18c0.34 0.01 0.66 0.1 0.94 0.24a2.24 2.24 0 0 0 0.92 0.24c0.33 0.01 0.65-0.05 0.94-0.17 0.29-0.12 0.62-0.19 0.96-0.18s0.66 0.1 0.95 0.24a2.21 2.21 0 0 0 0.92 0.24c0.33 0.01 0.65-0.05 0.94-0.17 0.3-0.12 0.62-0.19 0.96-0.18 0.34 0.01 0.66 0.1 0.95 0.25a2.21 2.21 0 0 0 0.92 0.24l-0.05 1.4zM4.23 8.96c0.7 0.02 1.29-0.53 1.32-1.24 0.02-0.71-0.53-1.3-1.23-1.33-0.7-0.02-1.29 0.53-1.31 1.24s0.53 1.31 1.23 1.33m0.02 4.46c-0.21 0.34-0.65 0.44-0.99 0.22-0.33-0.21-0.44-0.66-0.22-1L6.18 7.61a1.18 1.18 0 0 1 0.47-0.44l3.87-2.2L13.25 0.63C13.51 0.21 14.06 0.08 14.48 0.34c0.42 0.27 0.54 0.82 0.28 1.24L11.49 6.79a1.16 1.16 0 0 1-0.47 0.44L6.45 9.88 4.26 13.42z"></path></g><g id="SvgjsG1882"><path d="M6.07 3.46A1.01 1.01 0 1 0 6.14 1.44a1.01 1.01 0 0 0-0.07 2.02M0.25 8.25c0.03-0.82 0.72-1.46 1.54-1.43l3.13 0.11L4.99 4.68a1.01 1.01 0 0 1 2.02 0.07l-0.01 0.35 1.48 0.43a0.49 0.49 0 1 1-0.25 0.94l-1.27-0.34-0.03 0.86 1.51 0.05 4.25-4.1-0.16 1.1 1.97 1.41c0.33 0.2 0.43 0.64 0.23 0.97a0.69 0.69 0 0 1-0.74 0.32l-0.16-0.04a1.8 1.8 0 0 1-2.28 1.22L9.91 11l-0.15 4.29a0.67 0.67 0 0 1-1.34-0.05L8.58 10.86l-3.38-0.12-0.64 1.01 1.16 3.06c0.17 0.33 0.05 0.73-0.28 0.9a0.67 0.67 0 0 1-0.91-0.28l-1.35-3.53 0.04-1.11-0.7 1.02-0.11 3.22a0.67 0.67 0 0 1-1.34-0.04L1.21 11.26l0.58-0.85L1.89 7.49l-0.58 0.82-0.09 2.44L0.17 10.71 0.26 8.25zM13.46 6.63l-1.07-0.25-0.66 1.21a1.43 1.43 0 0 0 1.73-0.97z" fill-rule="evenodd"></path></g><g id="SvgjsG1883"><path d="M5.31 3.68c0.71-0.06 1.24-0.69 1.18-1.4-0.06-0.71-0.69-1.24-1.4-1.18a1.3 1.3 0 0 0-1.18 1.4c0.06 0.71 0.69 1.24 1.4 1.18M15.74 10.16L10.49 7.26l-1.28-1.78-0.02-0.02c-0.18-0.18-0.46-0.17-0.63 0.01l0 0.01a0.45 0.45 0 0 0-0.07 0.5l0.95 1.32 0 0.01-0.89 1.86-2.17-0.62-0.07-0.79 1.81-0.15a0.57 0.57 0 0 0 0.24-0.06 0.61 0.61 0 0 0 0.29-0.82c-0.11-0.23-0.36-0.36-0.6-0.35l-1.84 0.16-0.12-1.36c-0.06-0.71-0.69-1.24-1.4-1.18-0.71 0.06-1.24 0.69-1.18 1.4l0.27 3.16c0.03 0.4 0.26 0.76 0.57 0.97L1.46 9.77 0.49 11.96c0.04-0.01 0.07-0.02 0.1-0.03a2.84 2.84 0 0 1 1.2-0.22c0.41 0.01 0.81 0.12 1.17 0.3 0.23 0.11 0.48 0.18 0.73 0.19 0.25 0.01 0.5-0.04 0.74-0.14a2.82 2.82 0 0 1 1.19-0.22c0.4 0.01 0.81 0.12 1.17 0.3 0.23 0.11 0.49 0.18 0.74 0.19 0.25 0.01 0.5-0.04 0.73-0.13 0.38-0.16 0.79-0.24 1.2-0.22s0.81 0.12 1.17 0.3c0.09 0.04 0.18 0.07 0.27 0.1 1.48-0.33 4.11-0.99 4.84-1.6 0.21-0.18 0.26-0.48 0-0.62M-0.24 14.66c0.34 0.01 0.66-0.05 0.96-0.18a2.31 2.31 0 0 1 0.98-0.18c0.35 0.01 0.67 0.1 0.97 0.25A2.28 2.28 0 0 0 3.6 14.79c0.33 0.01 0.66-0.05 0.95-0.17a2.31 2.31 0 0 1 0.98-0.19c0.34 0.01 0.67 0.1 0.97 0.26 0.28 0.14 0.6 0.23 0.94 0.23s0.66-0.05 0.95-0.17a2.31 2.31 0 0 1 0.98-0.18c0.34 0.01 0.67 0.1 0.96 0.25 0.29 0.14 0.6 0.23 0.94 0.24a2.28 2.28 0 0 0 0.95-0.17 2.33 2.33 0 0 1 0.99-0.19c0.35 0.01 0.68 0.1 0.96 0.25a2.31 2.31 0 0 0 0.94 0.24l0.05-1.41c-0.34-0.01-0.66-0.1-0.94-0.24a2.29 2.29 0 0 0-0.97-0.25c-0.34-0.01-0.68 0.05-0.98 0.18a2.28 2.28 0 0 1-0.95 0.17c-0.34-0.01-0.65-0.1-0.94-0.24a2.29 2.29 0 0 0-0.96-0.24c-0.35-0.01-0.68 0.05-0.98 0.17a2.32 2.32 0 0 1-0.95 0.18 2.29 2.29 0 0 1-0.94-0.24 2.32 2.32 0 0 0-0.97-0.25c-0.35-0.01-0.68 0.05-0.98 0.18A2.31 2.31 0 0 1 3.65 13.37a2.28 2.28 0 0 1-0.94-0.24 2.33 2.33 0 0 0-0.96-0.24 2.31 2.31 0 0 0-0.99 0.18A2.3 2.3 0 0 1-0.19 13.24l-0.05 1.42z"></path></g><g id="SvgjsG1891"><path d="M12.67 9.75c-0.32-0.01-0.64 0.05-0.91 0.17-0.27 0.11-0.57 0.17-0.89 0.16-0.31-0.01-0.61-0.09-0.87-0.22a2.15 2.15 0 0 0-1.81-0.06c-0.27 0.11-0.57 0.17-0.88 0.15s-0.61-0.09-0.88-0.21a2.15 2.15 0 0 0-1.81-0.07c-0.27 0.11-0.57 0.17-0.88 0.16-0.31-0.01-0.61-0.09-0.88-0.22a2.13 2.13 0 0 0-1.8-0.06c-0.27 0.11-0.57 0.17-0.89 0.16l-0.04 1.31c0.31 0.01 0.61-0.05 0.88-0.16a2.13 2.13 0 0 1 1.81 0.07c0.22 0.11 0.47 0.18 0.73 0.2l-1.13 1.05a0.9 0.9 0 0 0-1.12 0.08l-1.29 1.21a0.9 0.9 0 0 0 1.22 1.31l1.29-1.21a0.89 0.89 0 0 0 0.2-1.04l1.56-1.45c0.1-0.03 0.21-0.05 0.3-0.09a2.15 2.15 0 0 1 1.81 0.06c0.26 0.13 0.56 0.21 0.87 0.22s0.61-0.05 0.89-0.16a2.15 2.15 0 0 1 1.81 0.07c0.27 0.13 0.56 0.21 0.87 0.22 0.31 0.01 0.61-0.05 0.89-0.16a2.15 2.15 0 0 1 1.81 0.06c0.26 0.13 0.56 0.21 0.87 0.22L14.44 10.2c-0.31-0.01-0.61-0.09-0.87-0.22-0.27-0.14-0.57-0.22-0.9-0.23M7.53 7.42L7.15 7.4l0.85-2.52 1.57 0.64L7.53 7.42z m5.98-4.09l1.29-1.21a0.89 0.89 0 0 0 0.05-1.26 0.89 0.89 0 0 0-1.27-0.05l-1.29 1.21a0.89 0.89 0 0 0-0.16 1.11L10.51 4.63l-3.05-1.25a1.28 1.28 0 0 0-1.88 0.67L4.52 7.21a0.45 0.45 0 0 0-0.02 0.1L0.26 7.16l-0.06 1.71c0.23 0.01 0.47-0.04 0.69-0.12a2.64 2.64 0 0 1 2.2 0.07 1.68 1.68 0 0 0 1.36 0.06 2.6 2.6 0 0 1 2.21 0.07 1.65 1.65 0 0 0 1.37 0.05 2.63 2.63 0 0 1 2.19 0.07 1.67 1.67 0 0 0 1.37 0.05c0.35-0.15 0.74-0.22 1.11-0.2 0.06 0 0.32 0.03 0.59-0.13 0.46-0.18 0.64-0.29 1.04-0.52 0.33-0.19 0.62-0.62-0.09-0.62-0.2 0-6.06-0.21-6.06-0.21L10.03 5.71l0.24 0.1a0.6 0.6 0 0 0 0.77-0.33 0.59 0.59 0 0 0-0.11-0.61L12.45 3.45c0.33 0.19 0.76 0.16 1.05-0.12z"></path><path d="M7.72 1.71l-0.18 0.34a0.65 0.65 0 0 1-0.59 0.35L6.57 2.38a1.21 1.21 0 0 0 2.22-0.61l0-0.06-1.02-0.04a0.06 0.06 0 0 0-0.05 0.04"></path><path d="M6.96 2.09a0.34 0.34 0 0 0 0.31-0.18l0.17-0.34c0.07-0.13 0.2-0.21 0.34-0.21l1.25 0.05a1.49 1.49 0 1 0-2.89 0.65l0.82 0.03z"></path></g><g id="SvgjsG1890"><path d="M11.72 3.72A1.1 1.1 0 1 0 11.81 1.52a1.1 1.1 0 0 0-0.09 2.2M5.38 7.39l1.69-1.69 1.41-0.59s-0.99 1.38-1.54 3.31L5.46 13.28l0.8 0.07L8.47 8.69l1.77 0.79 0.07 2.7 0.76 0.03 0.41-3.15-2.2-1.71s-0.07-0.1 0.04-0.15l1.85-1.57 2.87 1.55 0.44 0.08 0.14-0.7-0.47-0.15L10.23 3.45s-0.38-0.32-0.83 0.01l-3.09 1.63-1.44 1.96 0.51 0.34z"></path><path d="M1.66 12.26l3.52-5.43 0.3 0.19L1.96 12.45 1.66 12.26zM11.95 14.73l1.96-7.74 0.35 0.08-1.96 7.74-0.35-0.08z"></path><path d="M2.56 12.32l0.17-0.27-1.01-0.66-0.18 0.26 1.02 0.66zM12.8 14.57l0.08-0.3L11.71 13.96l-0.09 0.31 1.18 0.3zM0.93 13.08l8.15 0.28s0.83 0.07 1.33-0.38c0 0 0.27-0.08 0.39 0.16 0 0 0.07 0.77-1.18 0.77L0.68 13.6l0.25-0.52zM5.27 11.9l8.15 0.28s0.83 0.07 1.33-0.38c0 0 0.28-0.08 0.38 0.16 0 0 0.07 0.78-1.17 0.77L5.02 12.42l0.25-0.52z"></path></g><g id="SvgjsG1893"><path d="M9.51 5.16c1.27 0.04 2.35 0.78 2.93 1.84l3.59 0.13 0.07-1.95c0.03-0.72-0.54-1.33-1.25-1.36L1.45 3.36C0.74 3.33 0.14 3.9 0.11 4.62l-0.06 1.94 6.41 0.22c0.65-1.01 1.77-1.66 3.05-1.61M3.54 2.81l-1.19-0.04-0.15 0.43 1.42 0.05-0.08-0.44zM14.29 2.95l-1.59-0.05L12.4 3.56 14.52 3.63l-0.23-0.68zM8.83 3.2l-1.37-0.04L7.49 2.49l1.36 0.04-0.02 0.67zM10.11 2.31l-3.85-0.13-0.84 1.14 5.38 0.19L10.11 2.31z m2.5 5.05c0.18 0.45 0.28 0.94 0.27 1.45-0.07 1.95-1.69 3.47-3.61 3.41-1.93-0.07-3.44-1.7-3.37-3.65 0.02-0.52 0.15-1 0.36-1.44L0.03 6.91-0.15 12.23c-0.03 0.72 0.53 1.33 1.25 1.36l13.39 0.46c0.72 0.02 1.32-0.54 1.34-1.26L16.02 7.47 12.61 7.36z"></path><path d="M11.33 7.6a1.72 1.72 0 0 0-0.19-0.28c-0.39-0.51-0.99-0.86-1.67-0.89-0.69-0.02-1.31 0.28-1.74 0.76-0.08 0.09-0.15 0.18-0.21 0.28-0.22 0.33-0.36 0.72-0.37 1.14-0.04 1.25 0.92 2.29 2.16 2.34 1.23 0.04 2.27-0.93 2.31-2.18 0.01-0.43-0.09-0.82-0.29-1.17"></path></g><g id="SvgjsG1899"><use xlink:href="#SvgjsG1882" transform="translate(0, 0) scale(2)" fill="rgba(0, 217, 255, 0.29)"></use><use xlink:href="#SvgjsG1883" transform="translate(0, 60) scale(2)" fill="rgba(0, 217, 255, 0.29)"></use><use xlink:href="#SvgjsG1884" transform="translate(0, 120) scale(2)" fill="rgba(0, 217, 255, 0.29)"></use><use xlink:href="#SvgjsG1885" transform="translate(0, 180) scale(2)" fill="rgba(0, 217, 255, 0.29)"></use><use xlink:href="#SvgjsG1886" transform="translate(0, 240) scale(2)" fill="rgba(0, 217, 255, 0.29)"></use><use xlink:href="#SvgjsG1884" transform="translate(0, 300) scale(2)" fill="rgba(0, 217, 255, 0.29)"></use><use xlink:href="#SvgjsG1884" transform="translate(0, 360) scale(2)" fill="rgba(0, 217, 255, 0.29)"></use><use xlink:href="#SvgjsG1887" transform="translate(0, 420) scale(2)" fill="rgba(0, 217, 255, 0.29)"></use><use xlink:href="#SvgjsG1888" transform="translate(0, 480) scale(2)" fill="rgba(0, 217, 255, 0.29)"></use><use xlink:href="#SvgjsG1888" transform="translate(0, 540) scale(2)" fill="rgba(0, 217, 255, 0.29)"></use><use xlink:href="#SvgjsG1889" transform="translate(60, 0) scale(2)" fill="rgba(0, 217, 255, 0.29)"></use><use xlink:href="#SvgjsG1887" transform="translate(60, 60) scale(2)" fill="rgba(0, 217, 255, 0.29)"></use><use xlink:href="#SvgjsG1890" transform="translate(60, 120) scale(2)" fill="rgba(0, 217, 255, 0.29)"></use><use xlink:href="#SvgjsG1891" transform="translate(60, 180) scale(2)" fill="rgba(0, 217, 255, 0.29)"></use><use xlink:href="#SvgjsG1889" transform="translate(60, 240) scale(2)" fill="rgba(0, 217, 255, 0.29)"></use><use xlink:href="#SvgjsG1884" transform="translate(60, 300) scale(2)" fill="rgba(0, 217, 255, 0.29)"></use><use xlink:href="#SvgjsG1892" transform="translate(60, 360) scale(2)" fill="rgba(0, 217, 255, 0.29)"></use><use xlink:href="#SvgjsG1883" transform="translate(60, 420) scale(2)" fill="rgba(0, 217, 255, 0.29)"></use><use xlink:href="#SvgjsG1882" transform="translate(60, 480) scale(2)" fill="rgba(0, 217, 255, 0.29)"></use><use xlink:href="#SvgjsG1893" transform="translate(60, 540) scale(2)" fill="rgba(0, 217, 255, 0.29)"></use><use xlink:href="#SvgjsG1894" transform="translate(120, 0) scale(2)" fill="rgba(0, 217, 255, 0.29)"></use><use xlink:href="#SvgjsG1886" transform="translate(120, 60) scale(2)" fill="rgba(0, 217, 255, 0.29)"></use><use xlink:href="#SvgjsG1892" transform="translate(120, 120) scale(2)" fill="rgba(0, 217, 255, 0.29)"></use><use xlink:href="#SvgjsG1895" transform="translate(120, 180) scale(2)" fill="rgba(0, 217, 255, 0.29)"></use><use xlink:href="#SvgjsG1889" transform="translate(120, 240) scale(2)" fill="rgba(0, 217, 255, 0.29)"></use><use xlink:href="#SvgjsG1888" transform="translate(120, 300) scale(2)" fill="rgba(0, 217, 255, 0.29)"></use><use xlink:href="#SvgjsG1891" transform="translate(120, 360) scale(2)" fill="rgba(0, 217, 255, 0.29)"></use><use xlink:href="#SvgjsG1889" transform="translate(120, 420) scale(2)" fill="rgba(0, 217, 255, 0.29)"></use><use xlink:href="#SvgjsG1885" transform="translate(120, 480) scale(2)" fill="rgba(0, 217, 255, 0.29)"></use><use xlink:href="#SvgjsG1885" transform="translate(120, 540) scale(2)" fill="rgba(0, 217, 255, 0.29)"></use><use xlink:href="#SvgjsG1896" transform="translate(180, 0) scale(2)" fill="rgba(0, 217, 255, 0.29)"></use><use xlink:href="#SvgjsG1892" transform="translate(180, 60) scale(2)" fill="rgba(0, 217, 255, 0.29)"></use><use xlink:href="#SvgjsG1886" transform="translate(180, 120) scale(2)" fill="rgba(0, 217, 255, 0.29)"></use><use xlink:href="#SvgjsG1892" transform="translate(180, 180) scale(2)" fill="rgba(0, 217, 255, 0.29)"></use><use xlink:href="#SvgjsG1897" transform="translate(180, 240) scale(2)" fill="rgba(0, 217, 255, 0.29)"></use><use xlink:href="#SvgjsG1883" transform="translate(180, 300) scale(2)" fill="rgba(0, 217, 255, 0.29)"></use><use xlink:href="#SvgjsG1894" transform="translate(180, 360) scale(2)" fill="rgba(0, 217, 255, 0.29)"></use><use xlink:href="#SvgjsG1885" transform="translate(180, 420) scale(2)" fill="rgba(0, 217, 255, 0.29)"></use><use xlink:href="#SvgjsG1896" transform="translate(180, 480) scale(2)" fill="rgba(0, 217, 255, 0.29)"></use><use xlink:href="#SvgjsG1897" transform="translate(180, 540) scale(2)" fill="rgba(0, 217, 255, 0.29)"></use><use xlink:href="#SvgjsG1889" transform="translate(240, 0) scale(2)" fill="rgba(0, 217, 255, 0.29)"></use><use xlink:href="#SvgjsG1882" transform="translate(240, 60) scale(2)" fill="rgba(0, 217, 255, 0.29)"></use><use xlink:href="#SvgjsG1894" transform="translate(240, 120) scale(2)" fill="rgba(0, 217, 255, 0.29)"></use><use xlink:href="#SvgjsG1897" transform="translate(240, 180) scale(2)" fill="rgba(0, 217, 255, 0.29)"></use><use xlink:href="#SvgjsG1892" transform="translate(240, 240) scale(2)" fill="rgba(0, 217, 255, 0.29)"></use><use xlink:href="#SvgjsG1893" transform="translate(240, 300) scale(2)" fill="rgba(0, 217, 255, 0.29)"></use><use xlink:href="#SvgjsG1882" transform="translate(240, 360) scale(2)" fill="rgba(0, 217, 255, 0.29)"></use><use xlink:href="#SvgjsG1885" transform="translate(240, 420) scale(2)" fill="rgba(0, 217, 255, 0.29)"></use><use xlink:href="#SvgjsG1898" transform="translate(240, 480) scale(2)" fill="rgba(0, 217, 255, 0.29)"></use><use xlink:href="#SvgjsG1897" transform="translate(240, 540) scale(2)" fill="rgba(0, 217, 255, 0.29)"></use><use xlink:href="#SvgjsG1888" transform="translate(300, 0) scale(2)" fill="rgba(0, 217, 255, 0.29)"></use><use xlink:href="#SvgjsG1892" transform="translate(300, 60) scale(2)" fill="rgba(0, 217, 255, 0.29)"></use><use xlink:href="#SvgjsG1883" transform="translate(300, 120) scale(2)" fill="rgba(0, 217, 255, 0.29)"></use><use xlink:href="#SvgjsG1894" transform="translate(300, 180) scale(2)" fill="rgba(0, 217, 255, 0.29)"></use><use xlink:href="#SvgjsG1890" transform="translate(300, 240) scale(2)" fill="rgba(0, 217, 255, 0.29)"></use><use xlink:href="#SvgjsG1896" transform="translate(300, 300) scale(2)" fill="rgba(0, 217, 255, 0.29)"></use><use xlink:href="#SvgjsG1897" transform="translate(300, 360) scale(2)" fill="rgba(0, 217, 255, 0.29)"></use><use xlink:href="#SvgjsG1894" transform="translate(300, 420) scale(2)" fill="rgba(0, 217, 255, 0.29)"></use><use xlink:href="#SvgjsG1896" transform="translate(300, 480) scale(2)" fill="rgba(0, 217, 255, 0.29)"></use><use xlink:href="#SvgjsG1897" transform="translate(300, 540) scale(2)" fill="rgba(0, 217, 255, 0.29)"></use><use xlink:href="#SvgjsG1884" transform="translate(360, 0) scale(2)" fill="rgba(0, 217, 255, 0.29)"></use><use xlink:href="#SvgjsG1893" transform="translate(360, 60) scale(2)" fill="rgba(0, 217, 255, 0.29)"></use><use xlink:href="#SvgjsG1898" transform="translate(360, 120) scale(2)" fill="rgba(0, 217, 255, 0.29)"></use><use xlink:href="#SvgjsG1887" transform="translate(360, 180) scale(2)" fill="rgba(0, 217, 255, 0.29)"></use><use xlink:href="#SvgjsG1885" transform="translate(360, 240) scale(2)" fill="rgba(0, 217, 255, 0.29)"></use><use xlink:href="#SvgjsG1896" transform="translate(360, 300) scale(2)" fill="rgba(0, 217, 255, 0.29)"></use><use xlink:href="#SvgjsG1892" transform="translate(360, 360) scale(2)" fill="rgba(0, 217, 255, 0.29)"></use><use xlink:href="#SvgjsG1885" transform="translate(360, 420) scale(2)" fill="rgba(0, 217, 255, 0.29)"></use><use xlink:href="#SvgjsG1883" transform="translate(360, 480) scale(2)" fill="rgba(0, 217, 255, 0.29)"></use><use xlink:href="#SvgjsG1882" transform="translate(360, 540) scale(2)" fill="rgba(0, 217, 255, 0.29)"></use><use xlink:href="#SvgjsG1893" transform="translate(420, 0) scale(2)" fill="rgba(0, 217, 255, 0.29)"></use><use xlink:href="#SvgjsG1884" transform="translate(420, 60) scale(2)" fill="rgba(0, 217, 255, 0.29)"></use><use xlink:href="#SvgjsG1898" transform="translate(420, 120) scale(2)" fill="rgba(0, 217, 255, 0.29)"></use><use xlink:href="#SvgjsG1898" transform="translate(420, 180) scale(2)" fill="rgba(0, 217, 255, 0.29)"></use><use xlink:href="#SvgjsG1893" transform="translate(420, 240) scale(2)" fill="rgba(0, 217, 255, 0.29)"></use><use xlink:href="#SvgjsG1894" transform="translate(420, 300) scale(2)" fill="rgba(0, 217, 255, 0.29)"></use><use xlink:href="#SvgjsG1894" transform="translate(420, 360) scale(2)" fill="rgba(0, 217, 255, 0.29)"></use><use xlink:href="#SvgjsG1897" transform="translate(420, 420) scale(2)" fill="rgba(0, 217, 255, 0.29)"></use><use xlink:href="#SvgjsG1895" transform="translate(420, 480) scale(2)" fill="rgba(0, 217, 255, 0.29)"></use><use xlink:href="#SvgjsG1896" transform="translate(420, 540) scale(2)" fill="rgba(0, 217, 255, 0.29)"></use><use xlink:href="#SvgjsG1883" transform="translate(480, 0) scale(2)" fill="rgba(0, 217, 255, 0.29)"></use><use xlink:href="#SvgjsG1882" transform="translate(480, 60) scale(2)" fill="rgba(0, 217, 255, 0.29)"></use><use xlink:href="#SvgjsG1888" transform="translate(480, 120) scale(2)" fill="rgba(0, 217, 255, 0.29)"></use><use xlink:href="#SvgjsG1897" transform="translate(480, 180) scale(2)" fill="rgba(0, 217, 255, 0.29)"></use><use xlink:href="#SvgjsG1893" transform="translate(480, 240) scale(2)" fill="rgba(0, 217, 255, 0.29)"></use><use xlink:href="#SvgjsG1883" transform="translate(480, 300) scale(2)" fill="rgba(0, 217, 255, 0.29)"></use><use xlink:href="#SvgjsG1894" transform="translate(480, 360) scale(2)" fill="rgba(0, 217, 255, 0.29)"></use><use xlink:href="#SvgjsG1888" transform="translate(480, 420) scale(2)" fill="rgba(0, 217, 255, 0.29)"></use><use xlink:href="#SvgjsG1893" transform="translate(480, 480) scale(2)" fill="rgba(0, 217, 255, 0.29)"></use><use xlink:href="#SvgjsG1898" transform="translate(480, 540) scale(2)" fill="rgba(0, 217, 255, 0.29)"></use><use xlink:href="#SvgjsG1896" transform="translate(540, 0) scale(2)" fill="rgba(0, 217, 255, 0.29)"></use><use xlink:href="#SvgjsG1896" transform="translate(540, 60) scale(2)" fill="rgba(0, 217, 255, 0.29)"></use><use xlink:href="#SvgjsG1883" transform="translate(540, 120) scale(2)" fill="rgba(0, 217, 255, 0.29)"></use><use xlink:href="#SvgjsG1895" transform="translate(540, 180) scale(2)" fill="rgba(0, 217, 255, 0.29)"></use><use xlink:href="#SvgjsG1891" transform="translate(540, 240) scale(2)" fill="rgba(0, 217, 255, 0.29)"></use><use xlink:href="#SvgjsG1892" transform="translate(540, 300) scale(2)" fill="rgba(0, 217, 255, 0.29)"></use><use xlink:href="#SvgjsG1887" transform="translate(540, 360) scale(2)" fill="rgba(0, 217, 255, 0.29)"></use><use xlink:href="#SvgjsG1891" transform="translate(540, 420) scale(2)" fill="rgba(0, 217, 255, 0.29)"></use><use xlink:href="#SvgjsG1891" transform="translate(540, 480) scale(2)" fill="rgba(0, 217, 255, 0.29)"></use><use xlink:href="#SvgjsG1890" transform="translate(540, 540) scale(2)" fill="rgba(0, 217, 255, 0.29)"></use></g></defs></svg>